<?xml version="1.0" encoding="UTF-8"?>
<svg width="25px" height="25px" viewBox="0 0 25 25" version="1.1" xmlns="http://www.w3.org/2000/svg" xmlns:xlink="http://www.w3.org/1999/xlink">
    <!-- Generator: Sketch 45.2 (43514) - http://www.bohemiancoding.com/sketch -->
    <title>Fill 33</title>
    <desc>Created with Sketch.</desc>
    <defs></defs>
    <g id="Page-1" stroke="none" stroke-width="1" fill="none" fill-rule="evenodd">
        <g id="Desktop-Copy" transform="translate(-108.000000, -474.000000)" fill="#F7F7F7">
            <path d="M129.303906,495.302344 L125.596094,495.302344 L125.596094,489.500781 C125.596094,488.117188 125.572656,486.3375 123.669531,486.3375 C121.740625,486.3375 121.446094,487.845313 121.446094,489.401563 L121.446094,495.302344 L117.742188,495.302344 L117.742188,483.371875 L121.296875,483.371875 L121.296875,485.003125 L121.347656,485.003125 C121.842188,484.064844 123.051563,483.075781 124.855469,483.075781 C128.610156,483.075781 129.303906,485.546094 129.303906,488.759375 L129.303906,495.302344 Z M113.561719,481.742188 C112.370312,481.742188 111.410156,480.778906 111.410156,479.591406 C111.410156,478.404688 112.370312,477.441406 113.561719,477.441406 C114.747656,477.441406 115.710938,478.404688 115.710938,479.591406 C115.710938,480.778906 114.747656,481.742188 113.561719,481.742188 L113.561719,481.742188 Z M115.416406,495.302344 L111.704688,495.302344 L111.704688,483.371875 L115.416406,483.371875 L115.416406,495.302344 Z M131.958594,474 L109.042187,474 C108.466406,474 108,474.466406 108,475.041406 L108,497.957813 C108,498.533594 108.466406,499 109.042187,499 L131.958594,499 C132.533594,499 133,498.533594 133,497.957813 L133,475.041406 C133,474.466406 132.533594,474 131.958594,474 L131.958594,474 Z" id="Fill-33"></path>
        </g>
    </g>
</svg>