<?xml version="1.0" encoding="UTF-8"?>
<svg width="25px" height="25px" viewBox="0 0 25 25" version="1.1" xmlns="http://www.w3.org/2000/svg" xmlns:xlink="http://www.w3.org/1999/xlink">
    <!-- Generator: Sketch 45.2 (43514) - http://www.bohemiancoding.com/sketch -->
    <title>Fill 34</title>
    <desc>Created with Sketch.</desc>
    <defs></defs>
    <g id="Page-1" stroke="none" stroke-width="1" fill="none" fill-rule="evenodd">
        <g id="Desktop-Copy" transform="translate(-63.000000, -474.000000)" fill="#F7F7F7">
            <path d="M75.4992187,474 C68.596875,474 63,479.596094 63,486.500781 C63,492.022656 66.58125,496.707813 71.5492187,498.360938 C72.1742187,498.475781 72.4023438,498.089844 72.4023438,497.758594 C72.4023438,497.461719 72.3914062,496.675781 72.3851563,495.632813 C68.9078125,496.388281 68.1742187,493.957031 68.1742187,493.957031 C67.60625,492.513281 66.7867187,492.128906 66.7867187,492.128906 C65.6515625,491.353125 66.8726562,491.36875 66.8726562,491.36875 C68.1265625,491.457031 68.7867187,492.657031 68.7867187,492.657031 C69.9023438,494.567188 71.7125,494.015625 72.425,493.695312 C72.5382812,492.8875 72.8617187,492.336719 73.21875,492.024219 C70.4429687,491.708594 67.525,490.636719 67.525,485.846875 C67.525,484.482031 68.0117188,483.366406 68.8117187,482.492188 C68.6828125,482.175781 68.2539062,480.905469 68.9335938,479.184375 C68.9335938,479.184375 69.9835937,478.848437 72.3710938,480.465625 C73.36875,480.188281 74.4375,480.05 75.5007813,480.044531 C76.5625,480.05 77.6320312,480.188281 78.6304688,480.465625 C81.0164063,478.848437 82.0640625,479.184375 82.0640625,479.184375 C82.7460938,480.905469 82.3171875,482.175781 82.1882813,482.492188 C82.9898437,483.366406 83.4734375,484.482031 83.4734375,485.846875 C83.4734375,490.648437 80.5507812,491.705469 77.7664062,492.014844 C78.2148438,492.400781 78.6148437,493.163281 78.6148437,494.329688 C78.6148437,496.000781 78.5992187,497.348437 78.5992187,497.758594 C78.5992187,498.092969 78.8242188,498.482031 79.4585938,498.359375 C84.421875,496.703125 88,492.021094 88,486.500781 C88,479.596094 82.403125,474 75.4992187,474" id="Fill-34"></path>
        </g>
    </g>
</svg>