<?xml version="1.0" encoding="UTF-8"?>
<svg width="27px" height="26px" viewBox="0 0 27 26" version="1.1" xmlns="http://www.w3.org/2000/svg" xmlns:xlink="http://www.w3.org/1999/xlink">
    <!-- Generator: Sketch 45.2 (43514) - http://www.bohemiancoding.com/sketch -->
    <title>Fill 34</title>
    <desc>Created with Sketch.</desc>
    <defs></defs>
    <g id="Page-1" stroke="none" stroke-width="1" fill="none" fill-rule="evenodd">
        <g id="Desktop-Copy" transform="translate(-922.000000, -151.000000)" fill="#4A4A4A">
            <path d="M935.34221,151 C927.974348,151 922,156.973514 922,164.343878 C922,170.238168 925.822782,175.239308 931.125808,177.003925 C931.792961,177.126515 932.036471,176.714548 932.036471,176.360957 C932.036471,176.04406 932.024796,175.205116 932.018124,174.091806 C928.306256,174.898226 927.523186,172.303004 927.523186,172.303004 C926.916912,170.761882 926.042108,170.351584 926.042108,170.351584 C924.830393,169.523481 926.133842,169.54016 926.133842,169.54016 C927.472316,169.634395 928.176996,170.915327 928.176996,170.915327 C929.367862,172.954311 931.300102,172.36555 932.060655,172.023634 C932.181577,171.16134 932.526828,170.573412 932.907939,170.239836 C929.944949,169.902924 926.830182,168.758758 926.830182,163.64587 C926.830182,162.188977 927.349727,160.99811 928.203682,160.064931 C928.066081,159.727185 927.608248,158.371198 928.333776,156.534028 C928.333776,156.534028 929.454592,156.175433 932.003113,157.90169 C933.068055,157.605641 934.208885,157.458033 935.343878,157.452196 C936.477203,157.458033 937.618867,157.605641 938.684643,157.90169 C941.231496,156.175433 942.34981,156.534028 942.34981,156.534028 C943.07784,158.371198 942.620007,159.727185 942.482407,160.064931 C943.33803,160.99811 943.854239,162.188977 943.854239,163.64587 C943.854239,168.771267 940.734468,169.899588 937.762305,170.229829 C938.240987,170.641795 938.667964,171.455721 938.667964,172.700794 C938.667964,174.484592 938.651285,175.923139 938.651285,176.360957 C938.651285,176.717884 938.89146,177.133186 939.56862,177.002257 C944.866642,175.234304 948.686088,170.2365 948.686088,164.343878 C948.686088,156.973514 942.71174,151 935.34221,151" id="Fill-34"></path>
        </g>
    </g>
</svg>